<?xml version="1.0" encoding="utf-8"?>
<!-- Generator: Adobe Illustrator 26.5.1, SVG Export Plug-In . SVG Version: 6.00 Build 0)  -->
<svg version="1.1" id="Calque_1" xmlns="http://www.w3.org/2000/svg" xmlns:xlink="http://www.w3.org/1999/xlink" x="0px" y="0px"
	 viewBox="0 0 766 542.3" style="enable-background:new 0 0 766 542.3;" xml:space="preserve">
<style type="text/css">
	.st0{fill:#FFFFFF;}
</style>
<path class="st0" d="M305.9,383.5V158.4L503.8,271L305.9,383.5z M746,87.6c-8.7-32.8-34.4-58.6-66.9-67.4
	C620.1,4.3,383.3,4.3,383.3,4.3s-236.7,0-295.7,15.9C55,29,29.4,54.8,20.7,87.6C4.8,147,4.8,271,4.8,271s0,124,15.8,183.4
	c8.7,32.8,34.4,58.6,66.9,67.4c59,15.9,295.7,15.9,295.7,15.9s236.7,0,295.8-15.9c32.6-8.8,58.2-34.6,66.9-67.4
	c15.8-59.4,15.8-183.4,15.8-183.4S761.8,147,746,87.6"/>
</svg>
