<?xml version="1.0" encoding="utf-8"?>
<!-- Generator: Adobe Illustrator 26.5.1, SVG Export Plug-In . SVG Version: 6.00 Build 0)  -->
<svg version="1.1" id="Calque_1" xmlns="http://www.w3.org/2000/svg" xmlns:xlink="http://www.w3.org/1999/xlink" x="0px" y="0px"
	 viewBox="0 0 100 88" style="enable-background:new 0 0 100 88;" xml:space="preserve">
<style type="text/css">
	.st0{fill:#000000;}
</style>
<path id="Icon_awesome-shopping-cart" class="st0" d="M91.5,51.6l8.2-35.9c0.5-2.2-0.9-4.5-3.1-5c-0.3-0.1-0.6-0.1-0.9-0.1H27.4
	l-1.6-7.7c-0.4-1.9-2.1-3.3-4.1-3.3H4c-2.3,0-4.2,1.8-4.2,4.1c0,0,0,0,0,0v2.8c0,2.3,1.9,4.2,4.2,4.1c0,0,0,0,0,0h12.1l12.2,59.3
	c-4.7,2.7-6.3,8.6-3.6,13.3c2.7,4.7,8.6,6.3,13.3,3.6c4.7-2.7,6.3-8.6,3.6-13.3c-0.4-0.8-1-1.5-1.6-2.1h36.4
	c-3.8,3.8-3.9,9.9-0.2,13.8c3.8,3.8,9.9,3.9,13.8,0.2s3.9-9.9,0.2-13.8c-0.8-0.8-1.7-1.5-2.7-2l1-4.2c0.5-2.2-0.9-4.5-3.1-5
	c-0.3-0.1-0.6-0.1-0.9-0.1H37.7l-1.1-5.5h50.9C89.4,54.8,91.1,53.5,91.5,51.6z"/>
</svg>
