<?xml version="1.0" encoding="utf-8"?>
<!-- Generator: Adobe Illustrator 26.5.1, SVG Export Plug-In . SVG Version: 6.00 Build 0)  -->
<svg version="1.1" id="Calque_1" xmlns="http://www.w3.org/2000/svg" xmlns:xlink="http://www.w3.org/1999/xlink" x="0px" y="0px"
	 viewBox="0 0 100 88" style="enable-background:new 0 0 100 88;" xml:space="preserve">
<style type="text/css">
	.st0{fill:#000000;}
</style>
<g id="Icon_ionic-md-contacts" transform="translate(-2.25 -4.502)">
	<g id="Groupe_3" transform="translate(2.25 17.048)">
		<path id="Tracé_1" class="st0" d="M46.1,50.6c-8.4,4.7-18.6,4.7-27,0C8.5,53.8,2,64.5-0.4,73.9h65.8
			C63.1,64.5,56.6,53.8,46.1,50.6z"/>
		<path id="Tracé_2" class="st0" d="M32.6,0.5C19.5,0.5,8.8,11.1,8.9,24.2s10.6,23.7,23.7,23.7c13.1,0,23.7-10.6,23.7-23.7
			C56.3,11.1,45.7,0.5,32.6,0.5C32.6,0.5,32.6,0.5,32.6,0.5z M32.6,42.2c-7.3-0.1-13.8-4.6-16.6-11.3h33.2
			C46.3,37.7,39.8,42.1,32.6,42.2z"/>
	</g>
	<g id="Groupe_4" transform="translate(49.343 4.502)">
		<path id="Tracé_3" class="st0" d="M17.3,72.1h35.3c-2.4-9.4-8.9-18.3-19.4-21.5c-4.1,2.3-8.8,3.6-13.5,3.6
			c-3.2,0-6.4-0.6-9.4-1.7c-1.7,2.9-3.8,5.6-6.3,7.8C9.8,62.6,14.3,67.7,17.3,72.1z"/>
		<path id="Tracé_4" class="st0" d="M13.7,30.9h22.5c-2.8,6.7-9.3,11.1-16.6,11.3c-1.9,0-3.9-0.4-5.7-1c-0.3,1.9-0.8,3.8-1.5,5.6
			c12.5,4,25.8-2.9,29.8-15.4S39.3,5.5,26.8,1.6C16.6-1.7,5.4,2.4-0.4,11.5C6.9,15.7,12,22.7,13.7,30.9z"/>
	</g>
</g>
</svg>
