<?xml version="1.0" encoding="utf-8"?>
<!-- Generator: Adobe Illustrator 26.5.1, SVG Export Plug-In . SVG Version: 6.00 Build 0)  -->
<svg version="1.1" id="Calque_1" xmlns="http://www.w3.org/2000/svg" xmlns:xlink="http://www.w3.org/1999/xlink" x="0px" y="0px"
	 viewBox="0 0 301 79.4" style="enable-background:new 0 0 301 79.4;" xml:space="preserve">
<style type="text/css">
	.st0{fill:#4D4D4D;stroke:#000000;stroke-miterlimit:10;}
	.st1{fill:#1A1A1A;stroke:#000000;stroke-miterlimit:10;}
</style>
<path class="st0" d="M28.2,44.8c0.3,0.8,1.4,21.5,10.9,27.2c8.4,4.6,82.5,9.5,87.1,5.4c5.2-3.5,11.2-32.9,16.3-43.6
	c4.1-8.4,12.2-8.4,16.3,0c6.3,11.2,11.7,40,16.3,43.6c4.6,3.5,79.8-0.8,87.1-5.4c10.1-6.8,10.6-26.4,10.9-27.2
	c11.2-0.3,10.9-5.4,10.9-5.4V12.1c0,0,0.3-3.5-10.9-5.4C273.4,7,214-5,164.2,6.7c-4.6,1.4-22,1.4-27.2,0C87.8-4.5,27.9,7,28.2,6.7
	C17,8.6,17.3,12.1,17.3,12.1v27.2C17.3,39.4,17.1,45.1,28.2,44.8z"/>
<circle class="st0" cx="292.3" cy="25.8" r="8.2"/>
<circle class="st0" cx="9.2" cy="25.8" r="8.2"/>
<circle class="st1" cx="9.2" cy="25.8" r="5.4"/>
<circle class="st1" cx="292.3" cy="25.8" r="5.4"/>
<path class="st1" d="M44.6,66.6c-12.8-5.2-12.8-44.4-10.9-54.4c3.5-1.4,58.5-8.4,103.4,0c0.8,8.4-9,60.2-16.3,59.9
	C102,72.8,63.3,72.8,44.6,66.6z"/>
<path class="st1" d="M256.9,66.6c12.8-5.2,12.8-44.4,10.9-54.4c-3.5-1.4-58.5-8.4-103.4,0c-0.8,8.4,9,60.2,16.3,59.9
	C199.4,72.8,238.1,72.8,256.9,66.6z"/>
</svg>
