<?xml version="1.0" encoding="utf-8"?>
<!-- Generator: Adobe Illustrator 26.5.1, SVG Export Plug-In . SVG Version: 6.00 Build 0)  -->
<svg version="1.1" id="Calque_1" xmlns="http://www.w3.org/2000/svg" xmlns:xlink="http://www.w3.org/1999/xlink" x="0px" y="0px"
	 viewBox="0 0 91 91.8" style="enable-background:new 0 0 91 91.8;" xml:space="preserve">
<style type="text/css">
	.st0{fill:#000000;}
</style>
<path id="Icon_awesome-newspaper" class="st0" d="M86.8,0.9H14.2c-2.1,0-3.8,2.5-3.8,5.6v1.9H4.2c-2.1,0-3.8,2.5-3.8,5.6v63.8
	c0,7.2,3.9,13.1,8.8,13.1h73.8c4.1,0,7.5-5,7.5-11.2V6.5C90.4,3.4,88.8,0.9,86.8,0.9z M9.2,79.7c-0.7,0-1.2-0.8-1.2-1.9V19.7h2.5
	v58.1C10.4,78.8,9.9,79.7,9.2,79.7z M46.1,75.9H22.3c-1,0-1.9-1.3-1.9-2.8v-1.9c0-1.6,0.8-2.8,1.9-2.8h23.8c1,0,1.9,1.3,1.9,2.8v1.9
	C47.9,74.6,47.1,75.9,46.1,75.9z M78.7,75.9H54.8c-1,0-1.9-1.3-1.9-2.8v-1.9c0-1.6,0.8-2.8,1.9-2.8h23.8c1,0,1.9,1.3,1.9,2.8v1.9
	C80.4,74.6,79.7,75.9,78.7,75.9z M46.1,53.4H22.3c-1,0-1.9-1.3-1.9-2.8v-1.9c0-1.6,0.8-2.8,1.9-2.8h23.8c1,0,1.9,1.3,1.9,2.8v1.9
	C47.9,52.1,47.1,53.4,46.1,53.4z M78.7,53.4H54.8c-1,0-1.9-1.3-1.9-2.8v-1.9c0-1.6,0.8-2.8,1.9-2.8h23.8c1,0,1.9,1.3,1.9,2.8v1.9
	C80.4,52.1,79.7,53.4,78.7,53.4z M78.7,30.9H22.3c-1,0-1.9-1.3-1.9-2.8v-9.4c0-1.6,0.8-2.8,1.9-2.8h56.2c1,0,1.9,1.3,1.9,2.8v9.4
	C80.4,29.6,79.7,30.9,78.7,30.9z"/>
</svg>
