<?xml version="1.0" encoding="utf-8"?>
<!-- Generator: Adobe Illustrator 26.5.1, SVG Export Plug-In . SVG Version: 6.00 Build 0)  -->
<svg version="1.1" id="Calque_1" xmlns="http://www.w3.org/2000/svg" xmlns:xlink="http://www.w3.org/1999/xlink" x="0px" y="0px"
	 viewBox="0 0 571 456" style="enable-background:new 0 0 571 456;" xml:space="preserve">
<style type="text/css">
	.st0{fill:none;stroke:#FFFFFF;stroke-width:2;stroke-miterlimit:10;}
	.st1{fill:#FFFFFF;stroke:#000000;stroke-miterlimit:10;}
	.st2{fill:#FFFFFF;stroke:#000000;stroke-width:0.8815;stroke-miterlimit:10;}
	.st3{fill:#FFFFFF;stroke:#000000;stroke-width:1.2037;stroke-miterlimit:10;}
	.st4{fill:#FFFFFF;stroke:#000000;stroke-width:0.7197;stroke-miterlimit:10;}
	.st5{fill:#FFFFFF;stroke:#000000;stroke-width:0.3793;stroke-miterlimit:10;}
	.st6{fill:#FFFFFF;stroke:#000000;stroke-width:0.8269;stroke-miterlimit:9.9996;}
	.st7{fill:none;stroke:#000000;stroke-width:2;stroke-miterlimit:10;}
	.st8{fill:#FFFFFF;stroke:#000000;stroke-width:1.0145;stroke-miterlimit:10;}
	.st9{fill:#FFFFFF;}
	.st10{enable-background:new    ;}
</style>
<g>
	<circle cx="249" cy="314" r="25"/>
</g>
<polyline class="st0" points="244,311 244,319 229,319 229,309 244,309 244,311 254,311 254,309 269,309 269,319 254,319 254,311 
	"/>
<path d="M224,394c0-5,0-55,25-55s25,50,25,55s-5,60-20,60c-5,0-5-40-5-40s0,40-5,40C229,454,224,399,224,394z"/>
<g>
	<circle cx="252" cy="62" r="25"/>
</g>
<path d="M227,142c0-5,0-55,25-55s25,50,25,55H227z"/>
<path class="st1" d="M226.5,72.5h-3l10,10h-4l-10-10h-3v-20h5c0,0,0.5-29.5,30-30s30,30,30,30h5v20h-10v-20c0,0-1.5-25.5-25-25
	s-25,25-25,25V72.5z"/>
<rect x="187.5" y="79.5" class="st2" width="100" height="60"/>
<rect x="293.5" y="69.5" class="st3" width="40" height="80"/>
<rect x="217.5" y="143.5" class="st4" width="40" height="5"/>
<rect x="235" y="139" class="st5" width="5" height="5"/>
<g>
	<circle cx="28.2" cy="161.3" r="25"/>
</g>
<path d="M3.2,241.3c0-5,0-55,25-55s25,50,25,55H3.2z"/>
<rect x="48" y="187.5" transform="matrix(0.5 -0.866 0.866 0.5 -137.0358 157.6338)" class="st6" width="40" height="20"/>
<path class="st7" d="M74.4,171.9c0,0,5.3-2.7,9.5-0.3s4.5,8.4,4.5,8.4"/>
<path class="st7" d="M70.3,163.6c0,0,10.6-5.4,19-0.6s9,16.7,9,16.7"/>
<path class="st7" d="M66.8,153.5c0,0,12.9-11,28.6-1.8s13.4,26.1,13.4,26.1"/>
<g>
	<circle cx="445" cy="164" r="25"/>
</g>
<path d="M420,244c0-5,0-55,25-55s25,50,25,55H420z"/>
<rect x="444.5" y="237.5" class="st1" width="80" height="5"/>
<polygon class="st8" points="539.3,242.7 471.5,242.5 499.5,182.5 567.3,182.7 "/>
<circle class="st9" cx="226" cy="310" r="2"/>
<circle class="st9" cx="272" cy="310" r="2"/>
<polygon points="258.9,183.2 258.9,257.2 270,257.2 251.5,272 233,257.2 244.1,257.2 244.1,183.2 233,183.2 251.5,168.4 270,183.2 
	"/>
<polygon points="382.3,269.3 319,307.5 324.7,317 302.5,308.9 305.6,285.4 311.4,294.9 374.7,256.6 369,247.1 391.2,255.3 
	388.1,278.8 "/>
<polygon points="123.4,266.3 186.7,304.5 181,314 203.2,305.9 200.1,282.4 194.3,291.9 131,253.6 136.7,244.1 114.5,252.3 
	117.6,275.8 "/>
<g class="st10">
	<path class="st9" d="M207.1,13.3c-0.5,0-1-0.1-1.4-0.2c-0.4-0.1-0.8-0.4-1.1-0.6c-0.3-0.3-0.6-0.6-0.7-0.9c-0.1-0.1-0.1-0.2,0-0.4
		c0.1-0.1,0.2-0.2,0.3-0.2c0.1,0,0.2,0,0.3,0s0.2,0.1,0.2,0.3c0.1,0.2,0.3,0.4,0.5,0.6c0.2,0.2,0.5,0.3,0.8,0.4s0.7,0.2,1.1,0.2
		c0.4,0,0.8-0.1,1.1-0.2c0.3-0.1,0.6-0.3,0.8-0.6c0.2-0.3,0.3-0.6,0.3-1c0-0.5-0.2-0.9-0.5-1.3c-0.4-0.4-0.9-0.6-1.7-0.7
		c-0.9-0.1-1.7-0.4-2.2-0.9s-0.8-1-0.8-1.7c0-0.5,0.1-0.9,0.4-1.3c0.3-0.4,0.6-0.6,1.1-0.8c0.5-0.2,1-0.3,1.6-0.3
		c0.4,0,0.8,0.1,1.2,0.2c0.4,0.1,0.7,0.3,0.9,0.6c0.3,0.2,0.5,0.5,0.7,0.8c0.1,0.1,0.1,0.3,0.1,0.4c0,0.1-0.1,0.2-0.2,0.3
		c-0.1,0.1-0.2,0.1-0.4,0s-0.2-0.1-0.3-0.2c-0.1-0.2-0.3-0.4-0.5-0.5s-0.4-0.3-0.7-0.4c-0.3-0.1-0.6-0.1-0.9-0.2
		c-0.6,0-1.1,0.1-1.5,0.4c-0.4,0.3-0.6,0.7-0.6,1.2c0,0.3,0.1,0.5,0.2,0.8c0.1,0.2,0.4,0.4,0.7,0.6c0.3,0.2,0.8,0.3,1.3,0.4
		c1,0.1,1.7,0.5,2.2,0.9s0.7,1.1,0.7,1.8c0,0.4-0.1,0.8-0.2,1.2c-0.2,0.3-0.4,0.6-0.7,0.8c-0.3,0.2-0.6,0.4-1,0.5
		C207.9,13.3,207.5,13.3,207.1,13.3z"/>
	<path class="st9" d="M214.9,13.3c-0.6,0-1.2-0.1-1.7-0.4s-0.9-0.7-1.2-1.2c-0.3-0.5-0.4-1.1-0.4-1.7c0-0.6,0.1-1.2,0.4-1.7
		s0.7-0.9,1.2-1.2c0.5-0.3,1.1-0.4,1.7-0.4s1.2,0.1,1.7,0.4s0.9,0.7,1.2,1.2s0.4,1.1,0.4,1.7l-0.4,0.3c0,0.6-0.1,1.1-0.4,1.6
		s-0.6,0.8-1.1,1.1C216,13.1,215.5,13.3,214.9,13.3z M215,12.4c0.5,0,0.9-0.1,1.2-0.3c0.4-0.2,0.7-0.5,0.9-0.9s0.3-0.8,0.3-1.3
		c0-0.5-0.1-0.9-0.3-1.3s-0.5-0.7-0.9-0.9c-0.4-0.2-0.8-0.3-1.2-0.3c-0.5,0-0.9,0.1-1.2,0.3c-0.4,0.2-0.7,0.5-0.9,0.9
		s-0.3,0.8-0.3,1.3c0,0.5,0.1,0.9,0.3,1.3s0.5,0.7,0.9,0.9C214.2,12.3,214.6,12.4,215,12.4z M217.9,13.2c-0.1,0-0.2,0-0.3-0.1
		c-0.1-0.1-0.1-0.2-0.1-0.3v-2.1l0.2-0.9l0.7,0.2v2.8c0,0.1,0,0.2-0.1,0.3S218,13.2,217.9,13.2z"/>
	<path class="st9" d="M221.6,13.2c-0.3,0-0.6-0.1-0.9-0.3s-0.4-0.4-0.6-0.7c-0.1-0.3-0.2-0.7-0.2-1.1V4.3c0-0.1,0-0.2,0.1-0.3
		s0.2-0.1,0.3-0.1s0.2,0,0.3,0.1s0.1,0.2,0.1,0.3v6.8c0,0.3,0.1,0.6,0.2,0.8c0.1,0.2,0.3,0.3,0.5,0.3h0.3c0.1,0,0.2,0,0.3,0.1
		s0.1,0.2,0.1,0.3s0,0.2-0.1,0.3s-0.2,0.1-0.4,0.1H221.6z"/>
	<path class="st9" d="M226.1,13.3c-0.6,0-1.2-0.1-1.7-0.4s-0.9-0.7-1.2-1.2c-0.3-0.5-0.4-1.1-0.4-1.7c0-0.6,0.1-1.2,0.4-1.7
		s0.7-0.9,1.2-1.2c0.5-0.3,1.1-0.4,1.7-0.4s1.2,0.1,1.7,0.4s0.9,0.7,1.2,1.2s0.4,1.1,0.4,1.7l-0.4,0.3c0,0.6-0.1,1.1-0.4,1.6
		s-0.6,0.8-1.1,1.1C227.2,13.1,226.7,13.3,226.1,13.3z M226.2,12.4c0.5,0,0.9-0.1,1.2-0.3c0.4-0.2,0.7-0.5,0.9-0.9s0.3-0.8,0.3-1.3
		c0-0.5-0.1-0.9-0.3-1.3s-0.5-0.7-0.9-0.9c-0.4-0.2-0.8-0.3-1.2-0.3c-0.5,0-0.9,0.1-1.2,0.3c-0.4,0.2-0.7,0.5-0.9,0.9
		s-0.3,0.8-0.3,1.3c0,0.5,0.1,0.9,0.3,1.3s0.5,0.7,0.9,0.9C225.3,12.3,225.7,12.4,226.2,12.4z M229,13.2c-0.1,0-0.2,0-0.3-0.1
		c-0.1-0.1-0.1-0.2-0.1-0.3v-2.1l0.2-0.9l0.7,0.2v2.8c0,0.1,0,0.2-0.1,0.3S229.2,13.2,229,13.2z"/>
	<path class="st9" d="M231.8,13.2c-0.1,0-0.3,0-0.3-0.1c-0.1-0.1-0.1-0.2-0.1-0.3V7.1c0-0.1,0-0.3,0.1-0.3c0.1-0.1,0.2-0.1,0.3-0.1
		s0.3,0,0.3,0.1c0.1,0.1,0.1,0.2,0.1,0.3v5.7c0,0.1,0,0.3-0.1,0.3C232,13.2,231.9,13.2,231.8,13.2z M231.7,9.2
		c0-0.5,0.2-0.9,0.4-1.3s0.5-0.7,0.9-0.9s0.8-0.3,1.3-0.3c0.4,0,0.7,0.1,0.9,0.2c0.2,0.1,0.3,0.3,0.2,0.5c0,0.1-0.1,0.2-0.2,0.2
		s-0.2,0.1-0.3,0c-0.1,0-0.2,0-0.4,0c-0.4,0-0.8,0-1.2,0.1s-0.6,0.3-0.8,0.6c-0.2,0.3-0.3,0.6-0.3,1H231.7z"/>
	<path class="st9" d="M237.5,5.4c-0.2,0-0.3-0.1-0.5-0.2s-0.2-0.3-0.2-0.5c0-0.2,0.1-0.4,0.2-0.5c0.1-0.1,0.3-0.2,0.5-0.2
		c0.2,0,0.3,0.1,0.4,0.2c0.1,0.1,0.2,0.3,0.2,0.5c0,0.2-0.1,0.3-0.2,0.5S237.6,5.4,237.5,5.4z M237.5,13.2c-0.1,0-0.3,0-0.3-0.1
		s-0.1-0.2-0.1-0.3V7.1c0-0.1,0-0.3,0.1-0.3c0.1-0.1,0.2-0.1,0.3-0.1c0.1,0,0.2,0,0.3,0.1c0.1,0.1,0.1,0.2,0.1,0.3v5.6
		c0,0.1,0,0.3-0.1,0.3S237.6,13.2,237.5,13.2z"/>
	<path class="st9" d="M243.3,13.3c-0.6,0-1.2-0.1-1.7-0.4c-0.5-0.3-0.9-0.7-1.2-1.2c-0.3-0.5-0.4-1.1-0.4-1.7c0-0.7,0.1-1.2,0.4-1.7
		s0.6-0.9,1.1-1.2c0.5-0.3,1-0.4,1.6-0.4c0.6,0,1.1,0.1,1.6,0.4c0.5,0.3,0.8,0.7,1.1,1.1c0.2,0.5,0.4,1,0.4,1.7c0,0.1,0,0.2-0.1,0.3
		c-0.1,0.1-0.2,0.1-0.3,0.1h-5.1V9.5h5.2l-0.5,0.4c0-0.5-0.1-0.9-0.3-1.2c-0.2-0.4-0.4-0.7-0.8-0.9c-0.3-0.2-0.7-0.3-1.2-0.3
		c-0.5,0-0.9,0.1-1.2,0.3c-0.3,0.2-0.6,0.5-0.8,0.9s-0.3,0.8-0.3,1.3c0,0.5,0.1,0.9,0.3,1.3c0.2,0.4,0.5,0.7,0.9,0.9
		c0.4,0.2,0.8,0.3,1.3,0.3c0.3,0,0.6-0.1,0.9-0.2s0.5-0.2,0.7-0.4c0.1-0.1,0.2-0.1,0.3-0.1c0.1,0,0.2,0,0.3,0.1
		c0.1,0.1,0.2,0.2,0.2,0.3s0,0.2-0.1,0.3c-0.3,0.2-0.6,0.4-1,0.6C244,13.2,243.6,13.3,243.3,13.3z M242.9,5.7c-0.1,0-0.2,0-0.3-0.1
		c-0.1-0.1-0.1-0.2-0.1-0.3s0-0.2,0.1-0.3l1.4-1.4c0.1-0.1,0.2-0.1,0.3-0.1c0.1,0,0.2,0,0.3,0.1c0.1,0.1,0.1,0.2,0.1,0.3
		c0,0.1,0,0.1,0,0.2c0,0.1-0.1,0.1-0.1,0.1l-1.3,1.4C243.2,5.6,243.1,5.7,242.9,5.7z"/>
	<path class="st9" d="M251.8,13.2c-0.2,0-0.3,0-0.4-0.1c-0.1-0.1-0.1-0.2-0.1-0.3V4.3c0-0.1,0-0.2,0.1-0.3c0.1-0.1,0.2-0.1,0.3-0.1
		h2.9c0.5,0,0.9,0.1,1.3,0.3c0.4,0.2,0.7,0.5,0.9,0.8c0.2,0.4,0.3,0.8,0.3,1.2c0,0.4-0.1,0.8-0.3,1.2c-0.2,0.3-0.5,0.6-0.9,0.8
		c0.5,0.1,1,0.4,1.3,0.8c0.3,0.4,0.5,0.9,0.5,1.5c0,0.5-0.1,1-0.4,1.4c-0.2,0.4-0.6,0.7-1,1c-0.4,0.2-0.9,0.4-1.5,0.4H251.8z
		 M252.2,7.8h2.4c0.5,0,0.9-0.1,1.2-0.4c0.3-0.3,0.5-0.7,0.5-1.1c0-0.5-0.2-0.8-0.5-1.1s-0.7-0.4-1.2-0.4h-2.4V7.8z M252.2,12.3h2.7
		c0.4,0,0.7-0.1,1-0.2c0.3-0.2,0.5-0.4,0.7-0.6c0.2-0.3,0.3-0.6,0.3-1c0-0.4-0.1-0.7-0.3-0.9c-0.2-0.3-0.4-0.5-0.7-0.6
		c-0.3-0.1-0.6-0.2-1-0.2h-2.7V12.3z"/>
	<path class="st9" d="M260.9,13.2c-0.3,0-0.6-0.1-0.9-0.3s-0.4-0.4-0.6-0.7c-0.1-0.3-0.2-0.7-0.2-1.1V4.3c0-0.1,0-0.2,0.1-0.3
		s0.2-0.1,0.3-0.1s0.2,0,0.3,0.1s0.1,0.2,0.1,0.3v6.8c0,0.3,0.1,0.6,0.2,0.8c0.1,0.2,0.3,0.3,0.5,0.3h0.3c0.1,0,0.2,0,0.3,0.1
		s0.1,0.2,0.1,0.3s0,0.2-0.1,0.3s-0.2,0.1-0.4,0.1H260.9z"/>
	<path class="st9" d="M263.5,5.4c-0.2,0-0.3-0.1-0.5-0.2s-0.2-0.3-0.2-0.5c0-0.2,0.1-0.4,0.2-0.5c0.1-0.1,0.3-0.2,0.5-0.2
		c0.2,0,0.3,0.1,0.4,0.2c0.1,0.1,0.2,0.3,0.2,0.5c0,0.2-0.1,0.3-0.2,0.5S263.7,5.4,263.5,5.4z M263.5,13.2c-0.1,0-0.3,0-0.3-0.1
		s-0.1-0.2-0.1-0.3V7.1c0-0.1,0-0.3,0.1-0.3c0.1-0.1,0.2-0.1,0.3-0.1c0.1,0,0.2,0,0.3,0.1C264,6.9,264,7,264,7.1v5.6
		c0,0.1,0,0.3-0.1,0.3S263.7,13.2,263.5,13.2z"/>
	<path class="st9" d="M266.8,13.2c-0.1,0-0.3,0-0.3-0.1s-0.1-0.2-0.1-0.3V7.1c0-0.1,0-0.3,0.1-0.3c0.1-0.1,0.2-0.1,0.3-0.1
		c0.1,0,0.2,0,0.3,0.1c0.1,0.1,0.1,0.2,0.1,0.3v5.6c0,0.1,0,0.2-0.1,0.3S267,13.2,266.8,13.2z M272,13.2c-0.1,0-0.2,0-0.3-0.1
		c-0.1-0.1-0.1-0.2-0.1-0.3V9.6c0-0.5-0.1-0.9-0.3-1.2s-0.4-0.6-0.8-0.7c-0.3-0.2-0.7-0.2-1.1-0.2c-0.4,0-0.7,0.1-1.1,0.2
		c-0.3,0.2-0.6,0.4-0.8,0.6c-0.2,0.3-0.3,0.6-0.3,0.9h-0.7c0-0.5,0.2-1,0.4-1.4c0.3-0.4,0.6-0.7,1-0.9c0.4-0.2,0.9-0.3,1.4-0.3
		c0.6,0,1.1,0.1,1.5,0.4c0.4,0.2,0.8,0.6,1.1,1s0.4,1,0.4,1.7v3.1c0,0.1,0,0.2-0.1,0.3C272.2,13.2,272.1,13.2,272,13.2z"/>
	<path class="st9" d="M277.5,13.3c-0.6,0-1.2-0.1-1.7-0.4c-0.5-0.3-0.9-0.7-1.2-1.2s-0.4-1.1-0.4-1.7c0-0.6,0.1-1.2,0.4-1.7
		c0.3-0.5,0.7-0.9,1.2-1.2s1-0.4,1.7-0.4c0.5,0,1,0.1,1.5,0.3c0.4,0.2,0.8,0.5,1,0.9V4.3c0-0.1,0-0.3,0.1-0.3
		c0.1-0.1,0.2-0.1,0.3-0.1c0.1,0,0.2,0,0.3,0.1s0.1,0.2,0.1,0.3V10c0,0.6-0.2,1.2-0.5,1.7s-0.7,0.9-1.2,1.2S278.1,13.3,277.5,13.3z
		 M277.5,12.4c0.5,0,0.9-0.1,1.2-0.3c0.4-0.2,0.7-0.5,0.9-0.9s0.3-0.8,0.3-1.3c0-0.5-0.1-0.9-0.3-1.3c-0.2-0.4-0.5-0.7-0.9-0.9
		c-0.4-0.2-0.8-0.3-1.2-0.3c-0.5,0-0.9,0.1-1.2,0.3c-0.4,0.2-0.7,0.5-0.9,0.9C275.1,9,275,9.5,275,9.9c0,0.5,0.1,0.9,0.3,1.3
		s0.5,0.7,0.9,0.9C276.6,12.3,277,12.4,277.5,12.4z"/>
	<path class="st9" d="M286.8,13.4c-0.7,0-1.4-0.1-1.9-0.4c-0.6-0.3-1-0.7-1.3-1.2s-0.5-1.1-0.5-1.7V4.3c0-0.1,0-0.2,0.1-0.3
		c0.1-0.1,0.2-0.1,0.3-0.1c0.1,0,0.2,0,0.3,0.1s0.1,0.2,0.1,0.3v5.8c0,0.5,0.1,0.9,0.4,1.2c0.2,0.4,0.6,0.6,1,0.8
		c0.4,0.2,0.9,0.3,1.5,0.3c0.5,0,1-0.1,1.4-0.3s0.7-0.5,1-0.8c0.2-0.4,0.4-0.8,0.4-1.2V4.3c0-0.1,0-0.2,0.1-0.3
		c0.1-0.1,0.2-0.1,0.3-0.1c0.1,0,0.3,0,0.3,0.1s0.1,0.2,0.1,0.3v5.8c0,0.6-0.2,1.2-0.5,1.7s-0.8,0.9-1.3,1.2
		C288.2,13.3,287.5,13.4,286.8,13.4z"/>
	<path class="st9" d="M293.3,16c-0.1,0-0.3,0-0.3-0.1s-0.1-0.2-0.1-0.3V9.9c0-0.6,0.2-1.2,0.5-1.7c0.3-0.5,0.7-0.9,1.2-1.2
		s1.1-0.4,1.7-0.4c0.6,0,1.2,0.1,1.7,0.4s0.9,0.7,1.2,1.2c0.3,0.5,0.4,1.1,0.4,1.7c0,0.6-0.1,1.2-0.4,1.7s-0.7,0.9-1.2,1.2
		s-1,0.4-1.7,0.4c-0.5,0-1-0.1-1.5-0.3c-0.4-0.2-0.8-0.5-1-0.9v3.5c0,0.1,0,0.3-0.1,0.3S293.4,16,293.3,16z M296.1,12.4
		c0.5,0,0.9-0.1,1.2-0.3c0.4-0.2,0.7-0.5,0.9-0.9c0.2-0.4,0.3-0.8,0.3-1.3c0-0.5-0.1-0.9-0.3-1.3c-0.2-0.4-0.5-0.7-0.9-0.9
		c-0.4-0.2-0.8-0.3-1.2-0.3c-0.5,0-0.9,0.1-1.2,0.3c-0.4,0.2-0.7,0.5-0.9,0.9s-0.3,0.8-0.3,1.3c0,0.5,0.1,0.9,0.3,1.3
		s0.5,0.7,0.9,0.9C295.2,12.3,295.7,12.4,296.1,12.4z"/>
</g>
<g class="st10">
	<path class="st9" d="M488.5,161c-0.2,0-0.3,0-0.4-0.1c-0.1-0.1-0.2-0.2-0.2-0.3v-8.4c0-0.1,0-0.2,0.1-0.3c0.1-0.1,0.2-0.1,0.3-0.1
		h2.9c0.5,0,0.9,0.1,1.3,0.3c0.4,0.2,0.7,0.5,0.9,0.8c0.2,0.4,0.3,0.8,0.3,1.2c0,0.4-0.1,0.8-0.3,1.2c-0.2,0.3-0.5,0.6-0.9,0.8
		c0.5,0.1,1,0.4,1.3,0.8c0.3,0.4,0.5,0.9,0.5,1.5c0,0.5-0.1,1-0.4,1.4s-0.6,0.7-1,1c-0.4,0.2-0.9,0.4-1.5,0.4H488.5z M488.9,155.6
		h2.4c0.5,0,0.9-0.1,1.2-0.4c0.3-0.3,0.5-0.7,0.5-1.1c0-0.5-0.2-0.8-0.5-1.1c-0.3-0.2-0.7-0.4-1.2-0.4h-2.4V155.6z M488.9,160.1h2.7
		c0.4,0,0.7-0.1,1-0.2c0.3-0.2,0.5-0.4,0.7-0.6c0.2-0.3,0.3-0.6,0.3-1c0-0.4-0.1-0.7-0.3-0.9c-0.2-0.3-0.4-0.5-0.7-0.6
		c-0.3-0.1-0.6-0.2-1-0.2h-2.7V160.1z"/>
	<path class="st9" d="M499.1,161.1c-0.6,0-1.2-0.1-1.7-0.4c-0.5-0.3-0.9-0.7-1.2-1.2s-0.4-1.1-0.4-1.7c0-0.7,0.1-1.2,0.4-1.7
		s0.6-0.9,1.1-1.2s1-0.4,1.6-0.4c0.6,0,1.1,0.1,1.6,0.4c0.5,0.3,0.8,0.7,1.1,1.1c0.2,0.5,0.4,1,0.4,1.7c0,0.1,0,0.2-0.1,0.3
		c-0.1,0.1-0.2,0.1-0.3,0.1h-5.1v-0.8h5.2l-0.5,0.4c0-0.5-0.1-0.9-0.3-1.2s-0.4-0.7-0.8-0.9c-0.3-0.2-0.7-0.3-1.2-0.3
		c-0.5,0-0.9,0.1-1.2,0.3c-0.3,0.2-0.6,0.5-0.8,0.9s-0.3,0.8-0.3,1.3c0,0.5,0.1,0.9,0.3,1.3c0.2,0.4,0.5,0.7,0.9,0.9
		c0.4,0.2,0.8,0.3,1.3,0.3c0.3,0,0.6-0.1,0.9-0.2s0.5-0.2,0.7-0.4c0.1-0.1,0.2-0.1,0.3-0.1c0.1,0,0.2,0,0.3,0.1
		c0.1,0.1,0.2,0.2,0.2,0.3s0,0.2-0.1,0.3c-0.3,0.2-0.6,0.4-1,0.6C499.9,161,499.5,161.1,499.1,161.1z M498.8,153.5
		c-0.1,0-0.2,0-0.3-0.1c-0.1-0.1-0.1-0.2-0.1-0.3s0-0.2,0.1-0.3l1.4-1.4c0.1-0.1,0.2-0.1,0.3-0.1c0.1,0,0.2,0,0.3,0.1
		c0.1,0.1,0.1,0.2,0.1,0.3c0,0.1,0,0.1,0,0.2c0,0.1-0.1,0.1-0.1,0.1l-1.3,1.4C499,153.4,498.9,153.5,498.8,153.5z"/>
	<path class="st9" d="M504,161c-0.1,0-0.3,0-0.3-0.1s-0.1-0.2-0.1-0.3v-5.6c0-0.1,0-0.3,0.1-0.3c0.1-0.1,0.2-0.1,0.3-0.1
		c0.1,0,0.2,0,0.3,0.1c0.1,0.1,0.1,0.2,0.1,0.3v5.6c0,0.1,0,0.2-0.1,0.3S504.1,161,504,161z M509.2,161c-0.1,0-0.2,0-0.3-0.1
		c-0.1-0.1-0.1-0.2-0.1-0.3v-3.1c0-0.5-0.1-0.9-0.3-1.2s-0.4-0.6-0.8-0.7c-0.3-0.2-0.7-0.2-1.1-0.2c-0.4,0-0.7,0.1-1.1,0.2
		c-0.3,0.2-0.6,0.4-0.8,0.6c-0.2,0.3-0.3,0.6-0.3,0.9h-0.7c0-0.5,0.2-1,0.4-1.4c0.3-0.4,0.6-0.7,1-0.9c0.4-0.2,0.9-0.3,1.4-0.3
		c0.6,0,1.1,0.1,1.5,0.4c0.4,0.2,0.8,0.6,1.1,1s0.4,1,0.4,1.7v3.1c0,0.1,0,0.2-0.1,0.3C509.4,161,509.3,161,509.2,161z"/>
	<path class="st9" d="M514.6,161.1c-0.6,0-1.2-0.1-1.7-0.4c-0.5-0.3-0.9-0.7-1.2-1.2c-0.3-0.5-0.4-1.1-0.4-1.7
		c0-0.7,0.1-1.2,0.4-1.7c0.3-0.5,0.6-0.9,1.1-1.2c0.5-0.3,1-0.4,1.6-0.4c0.6,0,1.1,0.1,1.6,0.4c0.5,0.3,0.8,0.7,1,1.1
		c0.2,0.5,0.4,1,0.4,1.7c0,0.1,0,0.2-0.1,0.3c-0.1,0.1-0.2,0.1-0.3,0.1h-5.1v-0.8h5.2l-0.5,0.4c0-0.5-0.1-0.9-0.3-1.2
		c-0.2-0.4-0.4-0.7-0.8-0.9c-0.3-0.2-0.7-0.3-1.2-0.3c-0.5,0-0.9,0.1-1.2,0.3c-0.3,0.2-0.6,0.5-0.8,0.9c-0.2,0.4-0.3,0.8-0.3,1.3
		c0,0.5,0.1,0.9,0.3,1.3c0.2,0.4,0.5,0.7,0.9,0.9c0.4,0.2,0.8,0.3,1.3,0.3c0.3,0,0.6-0.1,0.9-0.2c0.3-0.1,0.5-0.2,0.7-0.4
		c0.1-0.1,0.2-0.1,0.3-0.1s0.2,0,0.3,0.1c0.1,0.1,0.2,0.2,0.2,0.3s0,0.2-0.1,0.3c-0.3,0.2-0.6,0.4-1,0.6
		C515.4,161,515,161.1,514.6,161.1z M514.3,153.5c-0.1,0-0.2,0-0.3-0.1c-0.1-0.1-0.1-0.2-0.1-0.3s0-0.2,0.1-0.3l1.4-1.4
		c0.1-0.1,0.2-0.1,0.3-0.1c0.1,0,0.2,0,0.3,0.1c0.1,0.1,0.1,0.2,0.1,0.3c0,0.1,0,0.1,0,0.2c0,0.1-0.1,0.1-0.1,0.1l-1.3,1.4
		C514.5,153.4,514.4,153.5,514.3,153.5z"/>
	<path class="st9" d="M521,161c-0.2,0-0.3-0.1-0.4-0.3l-2.7-5.7c0-0.1-0.1-0.2,0-0.3c0-0.1,0.1-0.2,0.2-0.2c0.1-0.1,0.2-0.1,0.3,0
		c0.1,0,0.2,0.1,0.2,0.2l2.6,5.5h-0.5l2.5-5.5c0-0.1,0.1-0.2,0.2-0.2c0.1,0,0.2,0,0.3,0c0.1,0.1,0.2,0.1,0.2,0.2c0,0.1,0,0.2,0,0.3
		l-2.6,5.7C521.4,160.9,521.2,161,521,161z"/>
	<path class="st9" d="M528.2,161.1c-0.6,0-1.2-0.1-1.7-0.4s-0.9-0.7-1.2-1.2c-0.3-0.5-0.4-1.1-0.4-1.7c0-0.6,0.1-1.2,0.4-1.7
		c0.3-0.5,0.7-0.9,1.2-1.2s1.1-0.4,1.7-0.4s1.2,0.1,1.7,0.4s0.9,0.7,1.2,1.2c0.3,0.5,0.4,1.1,0.4,1.7c0,0.6-0.1,1.2-0.4,1.7
		c-0.3,0.5-0.7,0.9-1.2,1.2S528.8,161.1,528.2,161.1z M528.2,160.3c0.5,0,0.9-0.1,1.2-0.3c0.4-0.2,0.7-0.5,0.9-0.9
		c0.2-0.4,0.3-0.8,0.3-1.3c0-0.5-0.1-0.9-0.3-1.3c-0.2-0.4-0.5-0.7-0.9-0.9s-0.8-0.3-1.2-0.3s-0.9,0.1-1.2,0.3s-0.7,0.5-0.9,0.9
		c-0.2,0.4-0.3,0.8-0.3,1.3c0,0.5,0.1,0.9,0.3,1.3c0.2,0.4,0.5,0.7,0.9,0.9C527.3,160.2,527.7,160.3,528.2,160.3z"/>
	<path class="st9" d="M534.7,161c-0.3,0-0.6-0.1-0.9-0.3s-0.4-0.4-0.6-0.7c-0.1-0.3-0.2-0.7-0.2-1.1v-6.8c0-0.1,0-0.2,0.1-0.3
		s0.2-0.1,0.3-0.1s0.2,0,0.3,0.1s0.1,0.2,0.1,0.3v6.8c0,0.3,0.1,0.6,0.2,0.8c0.1,0.2,0.3,0.3,0.5,0.3h0.3c0.1,0,0.2,0,0.3,0.1
		s0.1,0.2,0.1,0.3s0,0.2-0.1,0.3s-0.2,0.1-0.4,0.1H534.7z"/>
	<path class="st9" d="M539.3,161.1c-0.6,0-1.2-0.1-1.7-0.4c-0.5-0.3-0.9-0.7-1.2-1.2s-0.4-1.1-0.4-1.7c0-0.7,0.1-1.2,0.4-1.7
		s0.6-0.9,1.1-1.2s1-0.4,1.6-0.4c0.6,0,1.1,0.1,1.6,0.4c0.5,0.3,0.8,0.7,1.1,1.1c0.2,0.5,0.4,1,0.4,1.7c0,0.1,0,0.2-0.1,0.3
		c-0.1,0.1-0.2,0.1-0.3,0.1h-5.1v-0.8h5.2l-0.5,0.4c0-0.5-0.1-0.9-0.3-1.2s-0.4-0.7-0.8-0.9c-0.3-0.2-0.7-0.3-1.2-0.3
		c-0.5,0-0.9,0.1-1.2,0.3c-0.3,0.2-0.6,0.5-0.8,0.9s-0.3,0.8-0.3,1.3c0,0.5,0.1,0.9,0.3,1.3c0.2,0.4,0.5,0.7,0.9,0.9
		c0.4,0.2,0.8,0.3,1.3,0.3c0.3,0,0.6-0.1,0.9-0.2s0.5-0.2,0.7-0.4c0.1-0.1,0.2-0.1,0.3-0.1c0.1,0,0.2,0,0.3,0.1
		c0.1,0.1,0.2,0.2,0.2,0.3s0,0.2-0.1,0.3c-0.3,0.2-0.6,0.4-1,0.6C540.1,161,539.7,161.1,539.3,161.1z"/>
</g>
<g class="st10">
	<path class="st9" d="M7.9,122.6c-0.1,0-0.2,0-0.3-0.1c-0.1-0.1-0.1-0.2-0.1-0.3v-8.4c0-0.1,0-0.2,0.1-0.3c0.1-0.1,0.2-0.1,0.3-0.1
		h2.4c0.6,0,1.1,0.1,1.6,0.4c0.5,0.3,0.8,0.6,1.1,1.1c0.3,0.5,0.4,1,0.4,1.6c0,0.6-0.1,1.1-0.4,1.6c-0.3,0.5-0.6,0.8-1.1,1.1
		s-1,0.4-1.6,0.4H8.4v2.8c0,0.1,0,0.2-0.1,0.3S8.1,122.6,7.9,122.6z M8.4,118.3h1.9c0.4,0,0.8-0.1,1.1-0.3c0.3-0.2,0.6-0.4,0.8-0.8
		c0.2-0.3,0.3-0.7,0.3-1.1c0-0.4-0.1-0.8-0.3-1.1c-0.2-0.3-0.4-0.6-0.8-0.8c-0.3-0.2-0.7-0.3-1.1-0.3H8.4V118.3z"/>
	<path class="st9" d="M15.2,122.6c-0.1,0-0.3,0-0.3-0.1c-0.1-0.1-0.1-0.2-0.1-0.3v-5.7c0-0.1,0-0.3,0.1-0.3c0.1-0.1,0.2-0.1,0.3-0.1
		s0.3,0,0.3,0.1c0.1,0.1,0.1,0.2,0.1,0.3v5.7c0,0.1,0,0.3-0.1,0.3C15.4,122.5,15.3,122.6,15.2,122.6z M15.1,118.5
		c0-0.5,0.2-0.9,0.4-1.3s0.5-0.7,0.9-0.9s0.8-0.3,1.3-0.3c0.4,0,0.7,0.1,0.9,0.2c0.2,0.1,0.3,0.3,0.2,0.5c0,0.1-0.1,0.2-0.2,0.2
		s-0.2,0.1-0.3,0c-0.1,0-0.2,0-0.4,0c-0.4,0-0.8,0-1.2,0.1s-0.6,0.3-0.8,0.6c-0.2,0.3-0.3,0.6-0.3,1H15.1z"/>
	<path class="st9" d="M22.7,122.6c-0.6,0-1.2-0.1-1.7-0.4s-0.9-0.7-1.2-1.2c-0.3-0.5-0.4-1.1-0.4-1.7c0-0.6,0.1-1.2,0.4-1.7
		s0.7-0.9,1.2-1.2s1.1-0.4,1.7-0.4s1.2,0.1,1.7,0.4s0.9,0.7,1.2,1.2s0.4,1.1,0.4,1.7c0,0.6-0.1,1.2-0.4,1.7
		c-0.3,0.5-0.7,0.9-1.2,1.2S23.3,122.6,22.7,122.6z M22.7,121.8c0.5,0,0.9-0.1,1.2-0.3c0.4-0.2,0.7-0.5,0.9-0.9
		c0.2-0.4,0.3-0.8,0.3-1.3c0-0.5-0.1-0.9-0.3-1.3c-0.2-0.4-0.5-0.7-0.9-0.9s-0.8-0.3-1.2-0.3s-0.9,0.1-1.2,0.3
		c-0.4,0.2-0.7,0.5-0.9,0.9c-0.2,0.4-0.3,0.8-0.3,1.3c0,0.5,0.1,0.9,0.3,1.3c0.2,0.4,0.5,0.7,0.9,0.9
		C21.8,121.7,22.2,121.8,22.7,121.8z"/>
	<path class="st9" d="M30.8,122.6c-0.6,0-1.2-0.1-1.7-0.4c-0.5-0.3-0.9-0.7-1.2-1.2c-0.3-0.5-0.4-1.1-0.4-1.7c0-0.6,0.1-1.2,0.4-1.7
		s0.6-0.9,1.1-1.2s1-0.4,1.6-0.4c0.5,0,0.9,0.1,1.3,0.3s0.8,0.5,1.1,0.9c0.1,0.1,0.1,0.2,0.1,0.3s-0.1,0.2-0.2,0.3
		c-0.1,0.1-0.2,0.1-0.3,0.1c-0.1,0-0.2-0.1-0.3-0.2c-0.5-0.5-1-0.8-1.8-0.8c-0.4,0-0.8,0.1-1.2,0.3c-0.3,0.2-0.6,0.5-0.8,0.9
		s-0.3,0.8-0.3,1.3c0,0.5,0.1,0.9,0.3,1.3c0.2,0.4,0.5,0.7,0.8,0.9c0.4,0.2,0.8,0.3,1.2,0.3c0.3,0,0.6,0,0.9-0.1
		c0.3-0.1,0.5-0.2,0.7-0.4c0.1-0.1,0.2-0.1,0.3-0.1s0.2,0,0.3,0.1c0.1,0.1,0.1,0.2,0.2,0.3c0,0.1,0,0.2-0.1,0.3
		C32.4,122.3,31.6,122.6,30.8,122.6z"/>
	<path class="st9" d="M35.5,119.9c-0.1,0-0.3,0-0.3-0.1s-0.1-0.2-0.1-0.3v-5.8c0-0.1,0-0.3,0.1-0.3s0.2-0.1,0.3-0.1
		c0.1,0,0.2,0,0.3,0.1s0.1,0.2,0.1,0.3v5.8c0,0.1,0,0.2-0.1,0.3S35.6,119.9,35.5,119.9z M35.5,122.6c-0.1,0-0.3,0-0.3-0.1
		s-0.1-0.2-0.1-0.3v-5.6c0-0.1,0-0.3,0.1-0.3c0.1-0.1,0.2-0.1,0.3-0.1c0.1,0,0.2,0,0.3,0.1c0.1,0.1,0.1,0.2,0.1,0.3v5.6
		c0,0.1,0,0.2-0.1,0.3S35.6,122.6,35.5,122.6z M40.6,122.6c-0.1,0-0.2,0-0.3-0.1c-0.1-0.1-0.1-0.2-0.1-0.3V119
		c0-0.5-0.1-0.9-0.3-1.2s-0.4-0.6-0.8-0.7c-0.3-0.2-0.7-0.2-1.1-0.2c-0.4,0-0.7,0.1-1.1,0.2c-0.3,0.2-0.6,0.4-0.8,0.6
		c-0.2,0.3-0.3,0.6-0.3,0.9h-0.7c0-0.5,0.2-1,0.4-1.4c0.3-0.4,0.6-0.7,1-0.9c0.4-0.2,0.9-0.3,1.4-0.3c0.6,0,1.1,0.1,1.5,0.4
		c0.4,0.2,0.8,0.6,1.1,1s0.4,1,0.4,1.7v3.1c0,0.1,0,0.2-0.1,0.3C40.9,122.5,40.7,122.6,40.6,122.6z"/>
	<path class="st9" d="M46.1,122.6c-0.6,0-1.2-0.1-1.7-0.4c-0.5-0.3-0.9-0.7-1.2-1.2c-0.3-0.5-0.4-1.1-0.4-1.7c0-0.7,0.1-1.2,0.4-1.7
		s0.6-0.9,1.1-1.2c0.5-0.3,1-0.4,1.6-0.4c0.6,0,1.1,0.1,1.6,0.4c0.5,0.3,0.8,0.7,1.1,1.1c0.2,0.5,0.4,1,0.4,1.7c0,0.1,0,0.2-0.1,0.3
		c-0.1,0.1-0.2,0.1-0.3,0.1h-5.1v-0.8h5.2l-0.5,0.4c0-0.5-0.1-0.9-0.3-1.2c-0.2-0.4-0.4-0.7-0.8-0.9c-0.3-0.2-0.7-0.3-1.2-0.3
		c-0.5,0-0.9,0.1-1.2,0.3c-0.3,0.2-0.6,0.5-0.8,0.9s-0.3,0.8-0.3,1.3c0,0.5,0.1,0.9,0.3,1.3c0.2,0.4,0.5,0.7,0.9,0.9
		c0.4,0.2,0.8,0.3,1.3,0.3c0.3,0,0.6-0.1,0.9-0.2s0.5-0.2,0.7-0.4c0.1-0.1,0.2-0.1,0.3-0.1c0.1,0,0.2,0,0.3,0.1
		c0.1,0.1,0.2,0.2,0.2,0.3s0,0.2-0.1,0.3c-0.3,0.2-0.6,0.4-1,0.6C46.9,122.5,46.5,122.6,46.1,122.6z"/>
</g>
</svg>
