<?xml version="1.0" encoding="utf-8"?>
<!-- Generator: Adobe Illustrator 26.5.1, SVG Export Plug-In . SVG Version: 6.00 Build 0)  -->
<svg version="1.1" id="Calque_1" xmlns="http://www.w3.org/2000/svg" xmlns:xlink="http://www.w3.org/1999/xlink" x="0px" y="0px"
	 viewBox="0 0 1366 583" style="enable-background:new 0 0 1366 583;" xml:space="preserve">
<style type="text/css">
	.st0{fill:#323232;}
	.st1{fill:#1B1464;stroke:#000000;stroke-miterlimit:10;}
	.st2{fill:#F15A24;stroke:#000000;stroke-miterlimit:10;}
	.st3{fill:#FFD9A6;stroke:#000000;stroke-miterlimit:10;}
	.st4{fill:#754C24;stroke:#000000;stroke-miterlimit:10;}
	.st5{stroke:#000000;stroke-miterlimit:10;}
	.st6{fill:#4C4C4C;}
	.st7{fill:#FF0000;}
	.st8{fill:#FFFFFF;}
	.st9{fill:none;stroke:#000000;stroke-miterlimit:10;}
	.st10{fill:#4D4D4D;stroke:#000000;stroke-miterlimit:10;}
	.st11{fill:#1A1A1A;stroke:#000000;stroke-miterlimit:10;}
	.st12{fill:#3D2C2D;stroke:#000000;stroke-miterlimit:10;}
	.st13{fill:#FEBB00;}
</style>
<path class="st0" d="M1325,362c-7-114-511-138-631-136S37,223,37,364s220,214,680,214S1332,476,1325,362z"/>
<path class="st1" d="M882,426c-15.1,0.4-7-148-7-148h95.2c0,0,79.7,73.8,72.3,91.5c-7.4,17.7-71.6-36.2-76-38.4c0,0-4.8-4.1-39.1-31
	c-3.3,2.6-11.4,21.4-14.8,40.6C909.3,359.9,897.2,425.6,882,426z"/>
<path class="st2" d="M875,278c0,0,2.2-38.8-14.8-73.8c0,0.4-14-43.9-0.4-73.8c7-15.1,29.2-15.1,29.2-15.1l18.5,7.4l19.2-7.4
	c0,0,21.4-6.6,29.2,0.4c18.1,20.3-5.5,66.1,0,88.6C968,239.2,971,278,971,278H875z"/>
<polyline class="st2" points="882,130.8 992.8,167.4 985.8,189.5 882,167.7 "/>
<path class="st3" d="M985.8,189.2l6.6-22.1c0,0,17.7,6.6,15.1,18.8C1005.7,195.1,985.8,189.2,985.8,189.2z"/>
<path class="st3" d="M889.4,115.7l3.7-14.8c0,0-22.5-3.3-22.1-36.9c0.4,0.4-0.4-37.3,36.9-36.9c37.3,0.4,37.3,37.3,36.9,36.9
	c0.4,34.3-22.1,36.9-22.1,36.9l3.7,14.8c0,0-6.3,7-18.5,7.4C895.7,123.5,889.4,115.7,889.4,115.7z"/>
<polyline class="st2" points="949.3,112.9 1060,149.4 1053,171.6 961.4,151.5 "/>
<path class="st3" d="M1053,171.2l6.6-22.1c0,0,17.7,6.6,15.1,18.8C1072.9,177.1,1053,171.2,1053,171.2z"/>
<path class="st4" d="M1073.5,190.3c0,0-21.6-6.3-14.6-27.7c7-21.4,28.1-14.5,28.1-14.5l140.6,43.6l-2.2,7.1l-140.6-43.6
	c0,0-14.5-5.7-18.8,9.6c-4.4,15.3,9.7,18.5,9.7,18.5l21.2,6.6l-2.2,7.1L1073.5,190.3z"/>
<polygon class="st5" points="943.7,69.8 943.7,58.7 947.4,58.7 947.4,55 877.2,55 877.2,58.7 906.8,58.7 906.8,69.8 921.5,69.8 
	921.5,58.7 928.9,58.7 928.9,69.8 "/>
<g>
	<g>
		<rect x="120" y="21" class="st6" width="301" height="181"/>
		<path d="M420,22v180H120V22H420 M421,21h-1H120h-1v1v180v1h1h300h1v-1V22V21L421,21z"/>
	</g>
	<g>
		<rect x="120" y="5" class="st0" width="301" height="16"/>
		<path d="M420,6v15H120V6H420 M421,5h-1H120h-1v1v15v1h1h300h1v-1V6V5L421,5z"/>
	</g>
	<g>
		<rect x="120" class="st0" width="301" height="6"/>
		<path d="M420,1v5H120V1H420 M421,0h-1H120h-1v1v5v1h1h300h1V6V1V0L421,0z"/>
	</g>
	<rect x="415" y="1" class="st7" width="5" height="5"/>
	<g>
		<rect x="409" y="2" class="st8" width="5" height="2"/>
		<path d="M413,3v1h-4V3H413 M414,2h-1h-4h-1v1v1v1h1h4h1V4V3V2L414,2z"/>
	</g>
	<g>
		<line class="st9" x1="407" y1="4.5" x2="402" y2="4.5"/>
	</g>
</g>
<g>
	<g>
		<rect x="348" y="173" class="st6" width="301" height="181"/>
		<path d="M649,174v180H349V174H649 M650,173h-1H349h-1v1v180v1h1h300h1v-1V174V173L650,173z"/>
	</g>
	<g>
		<rect x="348" y="157" class="st0" width="301" height="16"/>
		<path d="M649,158v15H349v-15H649 M650,157h-1H349h-1v1v15v1h1h300h1v-1v-15V157L650,157z"/>
	</g>
	<g>
		<rect x="348" y="152" class="st0" width="301" height="6"/>
		<path d="M649,153v5H349v-5H649 M650,152h-1H349h-1v1v5v1h1h300h1v-1v-5V152L650,152z"/>
	</g>
	<rect x="644" y="153" class="st7" width="5" height="5"/>
	<g>
		<rect x="637" y="154" class="st8" width="5" height="2"/>
		<path d="M642,155v1h-4v-1H642 M643,154h-1h-4h-1v1v1v1h1h4h1v-1v-1V154L643,154z"/>
	</g>
	<g>
		<line class="st9" x1="635" y1="156.5" x2="630" y2="156.5"/>
	</g>
</g>
<g>
	<g>
		<rect x="92" y="256" class="st6" width="301" height="181"/>
		<path d="M393,257v180H93V257H393 M394,256h-1H93h-1v1v180v1h1h300h1v-1V257V256L394,256z"/>
	</g>
	<g>
		<rect x="92" y="240" class="st0" width="301" height="16"/>
		<path d="M393,241v15H93v-15H393 M394,240h-1H93h-1v1v15v1h1h300h1v-1v-15V240L394,240z"/>
	</g>
	<g>
		<rect x="92" y="235" class="st0" width="301" height="6"/>
		<path d="M393,236v5H93v-5H393 M394,235h-1H93h-1v1v5v1h1h300h1v-1v-5V235L394,235z"/>
	</g>
	<rect x="388" y="236" class="st7" width="5" height="5"/>
	<g>
		<rect x="381" y="237" class="st8" width="5" height="2"/>
		<path d="M386,238v1h-4v-1H386 M387,237h-1h-4h-1v1v1v1h1h4h1v-1v-1V237L387,237z"/>
	</g>
	<g>
		<line class="st9" x1="379" y1="239.5" x2="374" y2="239.5"/>
	</g>
</g>
<path class="st0" d="M1617.1,220.4"/>
<polygon class="st10" points="1169.9,462.5 992.7,462.5 1037,373.9 1214.2,373.9 "/>
<path class="st11" d="M1184.7,418.4c-13.3,22.9-55.3,36.9-96.7,36.9c-34.7,0-65-11.1-64.2-36.9c5.9-27.3,50.9-37.7,92.3-37.7
	C1160.3,380.7,1198,395.5,1184.7,418.4z"/>
<path class="st12" d="M1221.3,341.1C1208,364,1166,378,1124.6,378c-34.7,0-65-11.1-64.2-36.9c5.9-27.3,50.9-37.7,92.3-37.7
	C1197,303.4,1234.6,318.2,1221.3,341.1z"/>
<g>
	<path class="st13" d="M1158.7,304.9c-1.2,0-2.1-0.4-3-1.2c-0.9-0.9-1.3-1.9-1.3-3.2v-17h-41.5c-1.3,0-2.3-0.4-3.1-1.3
		c-0.8-0.8-1.3-1.8-1.4-2.8c-0.1-1.1,0.1-2.1,0.9-3l45.9-60.1c0.4-0.5,0.9-1,1.5-1.3c0.6-0.4,1.3-0.5,2.3-0.5c1.3,0,2.3,0.4,3.1,1.3
		c0.8,0.9,1.2,2,1.2,3.3v56.3h9.2c1.3,0,2.3,0.3,3.1,1c0.9,0.6,1.3,1.7,1.3,3.2c0,1-0.4,1.9-1.3,2.7c-0.9,0.8-1.9,1.2-3.1,1.2h-9.2
		v17c0,1.3-0.4,2.3-1.3,3.2C1161.2,304.6,1160,304.9,1158.7,304.9z M1117.8,278.9l-1.6-3.5h38.2v-49.8l2.3,2.4L1117.8,278.9z"/>
	<path class="st13" d="M1214.7,305.4c-5.8,0-10.6-1.8-14.8-5.5s-7.2-8.9-9.3-15.6c-2.1-6.8-3.2-14.9-3.2-24.4c0-9.4,1-17.4,3.2-24.2
		c2.1-6.8,5.2-12,9.3-15.7c4.1-3.6,9-5.5,14.8-5.5c5.9,0,10.9,1.8,14.9,5.5c4.1,3.7,7.2,8.9,9.3,15.7c2.1,6.8,3.2,14.8,3.2,24.1
		c0,9.4-1,17.6-3.2,24.3c-2.1,6.8-5.2,12-9.3,15.7C1225.5,303.6,1220.5,305.4,1214.7,305.4z M1214.7,296.4c4.2,0,7.6-1.6,10.3-4.7
		c2.7-3.1,4.7-7.5,6.1-12.9c1.3-5.5,2-11.7,2-18.8c0-6.9-0.7-13.1-2-18.6c-1.3-5.5-3.4-9.7-6.1-12.9c-2.7-3.2-6.1-4.7-10.2-4.7
		c-4.1,0-7.5,1.6-10.1,4.7c-2.7,3.1-4.7,7.5-6.1,12.9c-1.3,5.5-2,11.7-2,18.7c0,7.1,0.7,13.4,2,18.8c1.3,5.5,3.4,9.7,6.1,12.8
		C1207.1,294.8,1210.5,296.4,1214.7,296.4z"/>
	<path class="st13" d="M1299.8,304.9c-1.2,0-2.2-0.4-3.1-1.2c-0.9-0.9-1.3-1.9-1.3-3.2v-17H1254c-1.3,0-2.3-0.4-3.1-1.3
		s-1.3-1.8-1.4-2.8c-0.1-1.1,0.1-2.1,0.9-3l45.9-60.1c0.4-0.5,0.9-1,1.5-1.3c0.6-0.4,1.3-0.5,2.3-0.5c1.3,0,2.3,0.4,3.1,1.3
		c0.8,0.9,1.2,2,1.2,3.3v56.3h9.3c1.3,0,2.3,0.3,3.1,1c0.9,0.6,1.3,1.7,1.3,3.2c0,1-0.4,1.9-1.3,2.7c-0.9,0.8-1.9,1.2-3.1,1.2h-9.3
		v17c0,1.3-0.4,2.3-1.3,3.2C1302.1,304.6,1301.1,304.9,1299.8,304.9z M1258.8,278.9l-1.6-3.5h38.2v-49.8l2.3,2.4L1258.8,278.9z"/>
</g>
<path d="M908.6,36.7c-7.4,1.5-16.2,2.2-26.6,16.2c-1.5,4.4,3.7,7.4,3,14.8c-0.7,7.4-2.7,18.7-11,15.7c-20.7-23.8-0.8-59.9,26.5-65.1
	c27.3-5.2,39.1,6.6,40.6,17c1.5,10.3-0.7,10.3-0.7,10.3S919.7,34.5,908.6,36.7z"/>
</svg>
